<?xml version="1.0" encoding="iso-8859-1"?>
<!-- Generator: Adobe Illustrator 19.0.0, SVG Export Plug-In . SVG Version: 6.00 Build 0)  -->
<svg version="1.1" id="Capa_1" xmlns="http://www.w3.org/2000/svg" xmlns:xlink="http://www.w3.org/1999/xlink" x="0px" y="0px"
	 viewBox="0 0 486.4 486.4" style="enable-background:new 0 0 486.4 486.4;" xml:space="preserve">
<g>
	<path style="fill:#3F4448;" d="M292.978,436.622c-1.422,0-2.844,0-4.267-1.422l-143.644-54.044
		c-5.689-1.422-8.533-7.111-8.533-11.378l-5.689-85.333c0-4.267,1.422-8.533,5.689-11.378c4.267-2.844,8.533-2.844,12.8-1.422
		l174.933,65.422c2.844,1.422,5.689,4.267,7.111,7.111c1.422,2.844,1.422,7.111,0,9.956l-25.6,73.956
		C302.933,433.778,298.667,436.622,292.978,436.622z M164.978,361.244l113.778,42.667l19.911-45.511L166.4,308.622L164.978,361.244z
		"/>
	<path style="fill:#3F4448;" d="M428.089,179.2v116.622c32.711,0,58.311-25.6,58.311-58.311S459.378,179.2,428.089,179.2z"/>
</g>
<path style="fill:#6DAFE0;" d="M137.956,156.444v162.133h-115.2C9.956,318.578,0,308.622,0,297.244V179.2
	c0-12.8,9.956-22.756,22.756-22.756L137.956,156.444L137.956,156.444z"/>
<polygon style="fill:#E9EFF4;" points="423.822,418.133 130.844,318.578 130.844,156.444 423.822,58.311 "/>
<path style="fill:#DFE4E9;" d="M420.978,425.244L420.978,425.244c-8.533,0-15.644-7.111-15.644-15.644V65.422
	c0-8.533,7.111-15.644,15.644-15.644l0,0c8.533,0,15.644,7.111,15.644,15.644v345.6
	C436.622,418.133,429.511,425.244,420.978,425.244z"/>
<g>
	<path style="fill:#4E9AD4;" d="M103.822,199.111c0,5.689-5.689,11.378-11.378,11.378H45.511c-5.689,0-11.378-5.689-11.378-11.378
		c0-5.689,5.689-11.378,11.378-11.378h46.933C98.133,187.733,103.822,193.422,103.822,199.111z"/>
	<path style="fill:#4E9AD4;" d="M103.822,237.511c0,7.111-5.689,11.378-11.378,11.378H45.511c-5.689,0-11.378-5.689-11.378-11.378
		c0-5.689,5.689-11.378,11.378-11.378h46.933C98.133,226.133,103.822,231.822,103.822,237.511z"/>
	<path style="fill:#4E9AD4;" d="M103.822,275.911c0,7.111-5.689,11.378-11.378,11.378H45.511c-5.689,0-11.378-5.689-11.378-11.378
		c0-7.111,5.689-11.378,11.378-11.378h46.933C98.133,264.533,103.822,270.222,103.822,275.911z"/>
</g>
<g>
</g>
<g>
</g>
<g>
</g>
<g>
</g>
<g>
</g>
<g>
</g>
<g>
</g>
<g>
</g>
<g>
</g>
<g>
</g>
<g>
</g>
<g>
</g>
<g>
</g>
<g>
</g>
<g>
</g>
</svg>
